<?xml version="1.0" encoding="utf-8"?>
<!-- Generator: Adobe Illustrator 25.2.1, SVG Export Plug-In . SVG Version: 6.00 Build 0)  -->
<svg version="1.1" id="Layer_1" xmlns="http://www.w3.org/2000/svg" xmlns:xlink="http://www.w3.org/1999/xlink" x="0px" y="0px"
	 viewBox="0 0 3000 2100" style="enable-background:new 0 0 3000 2100;" xml:space="preserve">
<style type="text/css">
	.st0{fill:#337DAE;}
	.st1{fill:#2CA1DA;}
	.st2{fill:#0AD2FF;}
	.st3{fill:#FFFFFF;}
	.st4{fill:#231F20;}
</style>
<path class="st0" d="M567.6,623.9L213.8,977.7l0,0c-70.1-70.1-70.1-183.8,0-253.9L567.6,370l0,0
	C637.7,440.1,637.7,553.8,567.6,623.9z"/>
<path class="st1" d="M422,1105.3l-182.9,182.9l-7.8-7.8c-65.8-65.8-65.8-172.5,0-238.3l182.9-182.9l7.8,7.8
	C487.8,932.8,487.8,1039.5,422,1105.3z"/>
<path class="st2" d="M490.3,1375.6l-353.8,353.8l0,0c-70.1-70.1-70.1-183.8,0-253.9l353.8-353.8l0,0
	C560.4,1191.8,560.4,1305.5,490.3,1375.6z"/>
<path class="st0" d="M1078.4,917h-97.8v238.6h27.5c19,0,34.4-14.7,34.4-32.9v-36.8h36.3c59.1,0,89.1-42.1,89.1-84.6
	C1167.9,959.1,1138.2,917,1078.4,917z M1078.4,1032.2h-35.9v-59h35.9C1115.8,972.9,1115.8,1032.6,1078.4,1032.2z"/>
<polygon class="st0" points="1254.6,1010.7 1353.7,1010.7 1353.7,1062.9 1254.6,1062.9 1254.6,1098.6 1362.4,1098.6 1362.4,1155.6 
	1192,1155.6 1192,917 1362.4,917 1362.4,973.6 1254.6,973.6 "/>
<path class="st0" d="M1542.5,1073.7c29.7-9.1,48-34,48-78.2c-1.4-55.9-40.4-78.5-90.9-78.5h-97.8v238.6h62.5v-75.8l0,0
	c6.9,0,13.5,3.2,17.5,8.6l50.2,67.2h77.1L1542.5,1073.7z M1500.7,1027.8h-36.3v-54.6h36.3C1539.7,973.2,1539.7,1027.8,1500.7,1027.8
	z"/>
<rect x="1865.6" y="916.6" class="st0" width="61.8" height="238.6"/>
<polygon class="st0" points="2327.8,917.3 2404.9,917.3 2308.1,1032.6 2404.5,1155.9 2326.1,1155.9 2263.5,1070.6 2261.5,1073.3 
	2261.5,1155.9 2199.3,1155.9 2199.3,917.3 2261.5,917.3 2261.5,1005.6 "/>
<path class="st0" d="M2681.5,919.6h68.6c0,0,0,0,0,0l57.1,116.6c0,0,0,0,0,0l57.5-116.6c0,0,0,0,0,0h68.6c0,0,0,0,0,0v238.6
	c0,0,0,0,0,0h-65.5c0,0,0,0,0,0l-1.2-117.2c0,0,0,0,0,0l-35.6,81.8c0,0,0,0,0,0h-47.2c0,0,0,0,0,0l-36.4-81.8c0,0,0,0,0,0
	l-0.6,117.1c0,0.1-0.1,0.1-0.1,0.1h-65.2c0,0,0,0,0,0L2681.5,919.6C2681.4,919.6,2681.5,919.6,2681.5,919.6z"/>
<g>
	<path class="st0" d="M2402,1038.8c0-16.6,3.4-32.3,10.2-47.1c6.8-14.7,16-27.6,27.6-38.5c11.6-10.9,25.2-19.6,40.8-26
		c15.6-6.4,32.3-9.6,50-9.6c17.7,0,34.4,3.2,50.1,9.6c15.7,6.4,29.4,15,41.1,26c11.7,10.9,20.9,23.8,27.7,38.5
		c6.8,14.7,10.1,30.4,10.1,47.1c0,16.5-3.4,32.2-10.1,46.9c-6.8,14.7-16,27.6-27.7,38.5c-11.7,10.9-25.4,19.6-41.1,26
		c-15.7,6.4-32.4,9.6-50.1,9.6c-17.7,0-34.4-3.2-50-9.6c-15.6-6.4-29.2-15-40.8-26c-11.6-10.9-20.8-23.8-27.6-38.5
		C2405.4,1070.9,2402,1055.3,2402,1038.8z M2469.5,1038.8c0,8,1.6,15.7,4.7,22.9c3.2,7.2,7.5,13.6,13.1,19.1
		c5.5,5.5,12.1,9.9,19.5,13.3c7.5,3.3,15.4,5,23.9,5c8.4,0,16.4-1.7,23.9-5c7.5-3.3,14.1-7.7,19.8-13.3c5.7-5.5,10.1-11.9,13.3-19.1
		s4.7-14.9,4.7-22.9c0-7.9-1.6-15.6-4.7-22.9c-3.2-7.3-7.6-13.7-13.3-19.1c-5.7-5.4-12.3-9.8-19.8-13.1c-7.5-3.3-15.4-5-23.9-5
		c-8.4,0-16.4,1.7-23.9,5c-7.5,3.3-14,7.7-19.5,13.1c-5.5,5.4-9.9,11.8-13.1,19.1C2471.1,1023.2,2469.5,1030.8,2469.5,1038.8z"/>
</g>
<path class="st0" d="M1819.8,1055.6c-4-9.9-12.6-18.5-25.5-25.5c-7.4-3.9-15.2-7.1-23-9.5c-7.6-2.3-15.2-4.4-22.5-6.2
	c-7.3-1.8-14.2-3.4-20.6-5c-5.8-1.4-10.9-3.3-15.2-5.6c-4-2.1-7-4.8-9.2-8.1c-2.1-3.2-3.2-7.5-3.2-12.8c0-3.3,0.4-6.3,1.1-9.1
	c0.6-2.3,1.7-4.2,3.4-6c1.6-1.7,4-3.1,7.1-4.2c3.4-1.2,8-1.8,13.8-1.8c4.9,0,8.9,0.5,11.8,1.6c2.7,1,4.8,2.3,6.3,3.9
	c1.6,1.6,2.6,3.5,3.2,5.6c0.7,2.6,1.1,5.3,1.1,8.2c0,3.9-0.1,5.8-0.2,6.7c-0.1,1.4-0.3,2.3-0.5,2.8c-0.5,1.8,0,3.7,1.3,5.2
	c1.3,1.5,3.4,2.3,5.5,2.3h57.7c2.9,0,5.4-1.5,6.5-3.8c0.5-1.1,0.9-2.5,1.3-6.4c0.3-2.8,0.5-6.7,0.5-11.8c0-12.2-2.7-22.4-8.2-30.2
	c-5.4-7.7-12.7-13.9-21.7-18.3c-8.7-4.3-19-7.2-30.4-8.7c-11-1.4-22.8-2.1-35.1-2.1c-14.7,0-28.3,1.1-40.2,3.2
	c-12.4,2.2-23.1,5.9-31.8,11.1c-9,5.3-16,12.4-20.7,21c-4.6,8.4-7,18.9-7,31.2v5.9c0,14.8,3.8,26.7,11.3,35.4
	c7.2,8.3,16.3,15.1,27,20c10.2,4.7,21.4,8.5,33.3,11.2c11,2.6,21.4,5.6,30.9,9c12,4.4,16.4,8.5,18,11.2c2.6,4.3,3.9,9.5,3.9,15.3
	c0,7-1.7,12.6-5.1,16.9c-2.8,3.5-9.9,5.3-20.7,5.3c-6.2,0-11.1-0.7-14.5-2.1c-3.3-1.3-5.7-3-7.3-5.1c-1.8-2.2-3-4.8-3.7-7.8
	c-0.8-3.4-1.1-7.1-1.1-10.8c0-1.3,0.1-3,0.4-4.9c0.2-1.8,0.4-2.5,0.5-2.7c0.8-1.8,0.5-3.9-0.7-5.5c-1.3-1.7-3.5-2.7-5.9-2.7h-59.8
	c-3.2,0-6,1.9-6.8,4.6c-0.2,0.8-0.6,2.4-1,6.2c-0.3,2.8-0.5,6.7-0.5,12.1c0,12.5,2.5,23,7.3,31.3c4.9,8.5,12.2,15.2,21.6,20.1
	c9,4.7,19.9,7.9,32.5,9.6c12,1.6,25.6,2.4,40.5,2.4c34.9,0,59.7-5.7,75.9-17.5c16.3-11.9,24.6-30.1,24.6-54.2
	C1825.4,1075.2,1823.5,1064.8,1819.8,1055.6z"/>
<path class="st0" d="M760.8,1471L760.8,1471c-2.5,0-4.6-2.1-4.6-4.6V646.8c0-2.5,2.1-4.6,4.6-4.6l0,0c2.5,0,4.6,2.1,4.6,4.6v819.6
	C765.4,1468.9,763.4,1471,760.8,1471z"/>
<path class="st0" d="M2165.9,1055.7c-4-9.9-12.5-18.4-25.4-25.5c-7.4-3.9-15.1-7.1-23-9.5c-7.6-2.3-15.1-4.4-22.5-6.1
	c-7.3-1.8-14.1-3.4-20.6-5c-5.8-1.4-10.9-3.3-15.2-5.6c-4-2.1-7-4.8-9.2-8.1c-2.1-3.1-3.2-7.4-3.2-12.8c0-3.3,0.4-6.3,1.1-9.1
	c0.6-2.3,1.7-4.2,3.4-5.9c1.6-1.7,4-3.1,7.1-4.1c3.3-1.2,8-1.8,13.7-1.8c4.9,0,8.9,0.5,11.8,1.6c2.7,1,4.8,2.3,6.3,3.8
	c1.6,1.6,2.6,3.5,3.2,5.6c0.7,2.6,1.1,5.3,1.1,8.1c0,3.9-0.1,5.8-0.2,6.7c-0.1,1.4-0.3,2.3-0.5,2.7c-0.5,1.8,0,3.7,1.3,5.2
	c1.3,1.5,3.4,2.3,5.5,2.3h57.5c2.9,0,5.4-1.5,6.5-3.8c0.5-1.1,0.9-2.5,1.3-6.4c0.3-2.8,0.5-6.7,0.5-11.7c0-12.2-2.7-22.3-8.1-30.1
	c-5.4-7.7-12.7-13.9-21.7-18.3c-8.7-4.3-18.9-7.2-30.4-8.6c-11-1.4-22.7-2.1-35-2.1c-14.7,0-28.2,1.1-40,3.2
	c-12.3,2.2-23,5.9-31.7,11c-9,5.3-15.9,12.3-20.6,20.9c-4.6,8.4-7,18.9-7,31.1v5.9c0,14.8,3.8,26.7,11.3,35.3
	c7.2,8.3,16.2,15,26.9,19.9c10.2,4.7,21.4,8.5,33.2,11.2c11,2.6,21.4,5.6,30.8,9c11.9,4.4,16.3,8.5,17.9,11.1
	c2.6,4.3,3.8,9.4,3.8,15.3c0,6.9-1.7,12.6-5.1,16.8c-2.8,3.5-9.9,5.3-20.7,5.3c-6.2,0-11.1-0.7-14.4-2.1c-3.2-1.3-5.6-3-7.3-5
	c-1.8-2.2-3-4.8-3.7-7.8c-0.8-3.4-1.1-7-1.1-10.8c0-1.3,0.1-3,0.4-4.9c0.2-1.8,0.4-2.5,0.5-2.7c0.8-1.8,0.5-3.8-0.7-5.5
	c-1.3-1.7-3.5-2.7-5.8-2.7h-59.6c-3.2,0-6,1.9-6.8,4.6c-0.2,0.8-0.6,2.4-1,6.2c-0.3,2.7-0.5,6.7-0.5,12c0,12.5,2.4,22.9,7.3,31.2
	c4.9,8.4,12.2,15.2,21.5,20.1c9,4.7,19.9,7.9,32.4,9.6c11.9,1.6,25.5,2.4,40.3,2.4c34.8,0,59.5-5.7,75.7-17.4
	c16.3-11.8,24.5-30,24.5-54.1C2171.5,1075.3,2169.6,1065,2165.9,1055.7z"/>
<path class="st3" d="M1091.2,2233.2h-97.8v238.6h27.5c19,0,34.4-14.7,34.4-32.9v-36.8h36.3c59.1,0,89.1-42.1,89.1-84.6
	C1180.7,2275.4,1150.9,2233.2,1091.2,2233.2z M1091.2,2348.5h-35.9v-59h35.9C1128.5,2289.2,1128.5,2348.8,1091.2,2348.5z"/>
<polygon class="st3" points="1267.3,2326.9 1366.4,2326.9 1366.4,2379.2 1267.3,2379.2 1267.3,2414.9 1375.1,2414.9 1375.1,2471.8 
	1204.7,2471.8 1204.7,2233.2 1375.1,2233.2 1375.1,2289.8 1267.3,2289.8 "/>
<path class="st3" d="M1555.2,2389.9c29.7-9.1,48-34,48-78.2c-1.4-55.9-40.4-78.5-90.9-78.5h-97.8v238.6h62.5V2396l0,0
	c6.9,0,13.5,3.2,17.5,8.6l50.2,67.2h77.1L1555.2,2389.9z M1513.4,2344.1h-36.3v-54.6h36.3
	C1552.5,2289.5,1552.5,2344.1,1513.4,2344.1z"/>
<rect x="1878.4" y="2232.9" class="st3" width="61.8" height="238.6"/>
<polygon class="st3" points="2340.5,2233.6 2417.6,2233.6 2320.8,2348.8 2417.2,2472.2 2338.8,2472.2 2276.3,2386.9 2274.2,2389.6 
	2274.2,2472.2 2212,2472.2 2212,2233.6 2274.2,2233.6 2274.2,2321.9 "/>
<path class="st3" d="M2694.2,2235.8h68.6c0,0,0,0,0,0l57.1,116.6c0,0,0,0,0,0l57.5-116.6c0,0,0,0,0,0h68.6c0,0,0,0,0,0v238.6
	c0,0,0,0,0,0h-65.5c0,0,0,0,0,0l-1.2-117.2c0,0,0,0,0,0l-35.6,81.8c0,0,0,0,0,0h-47.2c0,0,0,0,0,0l-36.4-81.8c0,0,0,0,0,0
	l-0.6,117.1c0,0.1-0.1,0.1-0.1,0.1h-65.2c0,0,0,0,0,0L2694.2,2235.8C2694.2,2235.8,2694.2,2235.8,2694.2,2235.8z"/>
<g>
	<path class="st3" d="M2414.8,2355.1c0-16.6,3.4-32.3,10.2-47.1c6.8-14.7,16-27.6,27.6-38.5c11.6-10.9,25.2-19.6,40.8-26
		c15.6-6.4,32.3-9.6,50-9.6c17.7,0,34.4,3.2,50.1,9.6c15.7,6.4,29.4,15,41.1,26c11.7,10.9,20.9,23.8,27.7,38.5
		c6.8,14.7,10.1,30.4,10.1,47.1c0,16.5-3.4,32.2-10.1,46.9c-6.8,14.7-16,27.6-27.7,38.5c-11.7,10.9-25.4,19.6-41.1,26
		c-15.7,6.4-32.4,9.6-50.1,9.6c-17.7,0-34.4-3.2-50-9.6c-15.6-6.4-29.2-15-40.8-26c-11.6-10.9-20.8-23.8-27.6-38.5
		C2418.2,2387.2,2414.8,2371.6,2414.8,2355.1z M2482.3,2355.1c0,8,1.6,15.7,4.7,22.9c3.2,7.2,7.5,13.6,13.1,19.1
		c5.5,5.5,12.1,9.9,19.5,13.3c7.5,3.3,15.4,5,23.9,5c8.4,0,16.4-1.7,23.9-5c7.5-3.3,14.1-7.7,19.8-13.3c5.7-5.5,10.1-11.9,13.3-19.1
		c3.2-7.2,4.7-14.9,4.7-22.9c0-7.9-1.6-15.6-4.7-22.9c-3.2-7.3-7.6-13.7-13.3-19.1c-5.7-5.4-12.3-9.8-19.8-13.1
		c-7.5-3.3-15.4-5-23.9-5c-8.4,0-16.4,1.7-23.9,5c-7.5,3.3-14,7.7-19.5,13.1c-5.5,5.4-9.9,11.8-13.1,19.1
		C2483.8,2339.5,2482.3,2347.1,2482.3,2355.1z"/>
</g>
<path class="st3" d="M1832.5,2371.9c-4-9.9-12.6-18.5-25.5-25.5c-7.4-3.9-15.2-7.1-23-9.5c-7.6-2.3-15.2-4.4-22.5-6.2
	c-7.3-1.8-14.2-3.4-20.6-5c-5.8-1.4-10.9-3.3-15.2-5.6c-4-2.1-7-4.8-9.2-8.1c-2.1-3.2-3.2-7.5-3.2-12.8c0-3.3,0.4-6.3,1.1-9.1
	c0.6-2.3,1.7-4.2,3.4-6c1.6-1.7,4-3.1,7.1-4.2c3.4-1.2,8-1.8,13.8-1.8c4.9,0,8.9,0.5,11.8,1.6c2.7,1,4.8,2.3,6.3,3.9
	c1.6,1.6,2.6,3.5,3.2,5.6c0.7,2.6,1.1,5.3,1.1,8.2c0,3.9-0.1,5.8-0.2,6.7c-0.1,1.4-0.3,2.3-0.5,2.8c-0.5,1.8,0,3.7,1.3,5.2
	c1.3,1.5,3.4,2.3,5.5,2.3h57.7c2.9,0,5.4-1.5,6.5-3.8c0.5-1.1,0.9-2.5,1.3-6.4c0.3-2.8,0.5-6.7,0.5-11.8c0-12.2-2.7-22.4-8.2-30.2
	c-5.4-7.7-12.7-13.9-21.7-18.3c-8.7-4.3-19-7.2-30.4-8.7c-11-1.4-22.8-2.1-35.1-2.1c-14.7,0-28.3,1.1-40.2,3.2
	c-12.4,2.2-23.1,5.9-31.8,11.1c-9,5.3-16,12.4-20.7,21c-4.6,8.4-7,18.9-7,31.2v5.9c0,14.8,3.8,26.7,11.3,35.4
	c7.2,8.3,16.3,15.1,27,20c10.2,4.7,21.4,8.5,33.3,11.2c11,2.6,21.4,5.6,30.9,9c12,4.4,16.4,8.5,18,11.2c2.6,4.3,3.9,9.5,3.9,15.3
	c0,7-1.7,12.6-5.1,16.9c-2.8,3.5-9.9,5.3-20.7,5.3c-6.2,0-11.1-0.7-14.5-2.1c-3.3-1.3-5.7-3-7.3-5.1c-1.8-2.2-3-4.8-3.7-7.8
	c-0.8-3.4-1.1-7.1-1.1-10.8c0-1.3,0.1-3,0.4-4.9c0.2-1.8,0.4-2.5,0.5-2.7c0.8-1.8,0.5-3.9-0.7-5.5c-1.3-1.7-3.5-2.7-5.9-2.7h-59.8
	c-3.2,0-6,1.9-6.8,4.6c-0.2,0.8-0.6,2.4-1,6.2c-0.3,2.8-0.5,6.7-0.5,12.1c0,12.5,2.5,23,7.3,31.3c4.9,8.5,12.2,15.2,21.6,20.1
	c9,4.7,19.9,7.9,32.5,9.6c12,1.6,25.6,2.4,40.5,2.4c34.9,0,59.7-5.7,75.9-17.5c16.3-11.9,24.6-30.1,24.6-54.2
	C1838.1,2391.5,1836.2,2381.1,1832.5,2371.9z"/>
<path class="st3" d="M2178.6,2372c-4-9.9-12.5-18.4-25.4-25.5c-7.4-3.9-15.1-7.1-23-9.5c-7.6-2.3-15.1-4.4-22.5-6.1
	c-7.3-1.8-14.1-3.4-20.6-5c-5.8-1.4-10.9-3.3-15.2-5.6c-4-2.1-7-4.8-9.2-8.1c-2.1-3.1-3.2-7.4-3.2-12.8c0-3.3,0.4-6.3,1.1-9.1
	c0.6-2.3,1.7-4.2,3.4-5.9c1.6-1.7,4-3.1,7.1-4.1c3.3-1.2,8-1.8,13.7-1.8c4.9,0,8.9,0.5,11.8,1.6c2.7,1,4.8,2.3,6.3,3.8
	c1.6,1.6,2.6,3.5,3.2,5.6c0.7,2.6,1.1,5.3,1.1,8.1c0,3.9-0.1,5.8-0.2,6.7c-0.1,1.4-0.3,2.3-0.5,2.7c-0.5,1.8,0,3.7,1.3,5.2
	c1.3,1.5,3.4,2.3,5.5,2.3h57.5c2.9,0,5.4-1.5,6.5-3.8c0.5-1.1,0.9-2.5,1.3-6.4c0.3-2.8,0.5-6.7,0.5-11.7c0-12.2-2.7-22.3-8.1-30.1
	c-5.4-7.7-12.7-13.9-21.7-18.3c-8.7-4.3-18.9-7.2-30.4-8.6c-11-1.4-22.7-2.1-35-2.1c-14.7,0-28.2,1.1-40,3.2
	c-12.3,2.2-23,5.9-31.7,11c-9,5.3-15.9,12.3-20.6,20.9c-4.6,8.4-7,18.9-7,31.1v5.9c0,14.8,3.8,26.7,11.3,35.3
	c7.2,8.3,16.2,15,26.9,19.9c10.2,4.7,21.4,8.5,33.2,11.2c11,2.6,21.4,5.6,30.8,9c11.9,4.4,16.3,8.5,17.9,11.1
	c2.6,4.3,3.8,9.4,3.8,15.3c0,6.9-1.7,12.6-5.1,16.8c-2.8,3.5-9.9,5.3-20.7,5.3c-6.2,0-11.1-0.7-14.4-2.1c-3.2-1.3-5.6-3-7.3-5
	c-1.8-2.2-3-4.8-3.7-7.8c-0.8-3.4-1.1-7-1.1-10.8c0-1.3,0.1-3,0.4-4.9c0.2-1.8,0.4-2.5,0.5-2.7c0.8-1.8,0.5-3.8-0.7-5.5
	c-1.3-1.7-3.5-2.7-5.8-2.7h-59.6c-3.2,0-6,1.9-6.8,4.6c-0.2,0.8-0.6,2.4-1,6.2c-0.3,2.7-0.5,6.7-0.5,12c0,12.5,2.4,22.9,7.3,31.2
	c4.9,8.4,12.2,15.2,21.5,20.1c9,4.7,19.9,7.9,32.4,9.6c11.9,1.6,25.5,2.4,40.3,2.4c34.8,0,59.5-5.7,75.7-17.4
	c16.3-11.8,24.5-30,24.5-54.1C2184.2,2391.6,2182.3,2381.2,2178.6,2372z"/>
<path class="st4" d="M1091.2,2551.2h-97.8v238.6h27.5c19,0,34.4-14.7,34.4-32.9v-36.8h36.3c59.1,0,89.1-42.1,89.1-84.6
	C1180.7,2593.3,1150.9,2551.2,1091.2,2551.2z M1091.2,2666.5h-35.9v-59h35.9C1128.5,2607.2,1128.5,2666.8,1091.2,2666.5z"/>
<polygon class="st4" points="1267.3,2644.9 1366.4,2644.9 1366.4,2697.2 1267.3,2697.2 1267.3,2732.9 1375.1,2732.9 1375.1,2789.8 
	1204.7,2789.8 1204.7,2551.2 1375.1,2551.2 1375.1,2607.8 1267.3,2607.8 "/>
<path class="st4" d="M1555.2,2707.9c29.7-9.1,48-34,48-78.2c-1.4-55.9-40.4-78.5-90.9-78.5h-97.8v238.6h62.5V2714l0,0
	c6.9,0,13.5,3.2,17.5,8.6l50.2,67.2h77.1L1555.2,2707.9z M1513.4,2662.1h-36.3v-54.6h36.3
	C1552.5,2607.5,1552.5,2662.1,1513.4,2662.1z"/>
<rect x="1878.4" y="2550.9" class="st4" width="61.8" height="238.6"/>
<polygon class="st4" points="2340.5,2551.6 2417.6,2551.6 2320.8,2666.8 2417.2,2790.2 2338.8,2790.2 2276.3,2704.9 2274.2,2707.6 
	2274.2,2790.2 2212,2790.2 2212,2551.6 2274.2,2551.6 2274.2,2639.9 "/>
<path class="st4" d="M2694.2,2553.8h68.6c0,0,0,0,0,0l57.1,116.6c0,0,0,0,0,0l57.5-116.6c0,0,0,0,0,0h68.6c0,0,0,0,0,0v238.6
	c0,0,0,0,0,0h-65.5c0,0,0,0,0,0l-1.2-117.2c0,0,0,0,0,0l-35.6,81.8c0,0,0,0,0,0h-47.2c0,0,0,0,0,0l-36.4-81.8c0,0,0,0,0,0
	l-0.6,117.1c0,0.1-0.1,0.1-0.1,0.1h-65.2c0,0,0,0,0,0L2694.2,2553.8C2694.2,2553.8,2694.2,2553.8,2694.2,2553.8z"/>
<g>
	<path class="st4" d="M2414.8,2673c0-16.6,3.4-32.3,10.2-47.1c6.8-14.7,16-27.6,27.6-38.5c11.6-10.9,25.2-19.6,40.8-26
		c15.6-6.4,32.3-9.6,50-9.6c17.7,0,34.4,3.2,50.1,9.6c15.7,6.4,29.4,15,41.1,26c11.7,10.9,20.9,23.8,27.7,38.5
		c6.8,14.7,10.1,30.4,10.1,47.1c0,16.5-3.4,32.2-10.1,46.9c-6.8,14.7-16,27.6-27.7,38.5c-11.7,10.9-25.4,19.6-41.1,26
		c-15.7,6.4-32.4,9.6-50.1,9.6c-17.7,0-34.4-3.2-50-9.6c-15.6-6.4-29.2-15-40.8-26c-11.6-10.9-20.8-23.8-27.6-38.5
		C2418.2,2705.2,2414.8,2689.6,2414.8,2673z M2482.3,2673c0,8,1.6,15.7,4.7,22.9c3.2,7.2,7.5,13.6,13.1,19.1
		c5.5,5.5,12.1,9.9,19.5,13.3c7.5,3.3,15.4,5,23.9,5c8.4,0,16.4-1.7,23.9-5c7.5-3.3,14.1-7.7,19.8-13.3c5.7-5.5,10.1-11.9,13.3-19.1
		c3.2-7.2,4.7-14.9,4.7-22.9c0-7.9-1.6-15.6-4.7-22.9c-3.2-7.3-7.6-13.7-13.3-19.1c-5.7-5.4-12.3-9.8-19.8-13.1
		c-7.5-3.3-15.4-5-23.9-5c-8.4,0-16.4,1.7-23.9,5c-7.5,3.3-14,7.7-19.5,13.1c-5.5,5.4-9.9,11.8-13.1,19.1
		C2483.8,2657.5,2482.3,2665.1,2482.3,2673z"/>
</g>
<path class="st4" d="M1832.5,2689.9c-4-9.9-12.6-18.5-25.5-25.5c-7.4-3.9-15.2-7.1-23-9.5c-7.6-2.3-15.2-4.4-22.5-6.2
	c-7.3-1.8-14.2-3.4-20.6-5c-5.8-1.4-10.9-3.3-15.2-5.6c-4-2.1-7-4.8-9.2-8.1c-2.1-3.2-3.2-7.5-3.2-12.8c0-3.3,0.4-6.3,1.1-9.1
	c0.6-2.3,1.7-4.2,3.4-6c1.6-1.7,4-3.1,7.1-4.2c3.4-1.2,8-1.8,13.8-1.8c4.9,0,8.9,0.5,11.8,1.6c2.7,1,4.8,2.3,6.3,3.9
	c1.6,1.6,2.6,3.5,3.2,5.6c0.7,2.6,1.1,5.3,1.1,8.2c0,3.9-0.1,5.8-0.2,6.7c-0.1,1.4-0.3,2.3-0.5,2.8c-0.5,1.8,0,3.7,1.3,5.2
	c1.3,1.5,3.4,2.3,5.5,2.3h57.7c2.9,0,5.4-1.5,6.5-3.8c0.5-1.1,0.9-2.5,1.3-6.4c0.3-2.8,0.5-6.7,0.5-11.8c0-12.2-2.7-22.4-8.2-30.2
	c-5.4-7.7-12.7-13.9-21.7-18.3c-8.7-4.3-19-7.2-30.4-8.7c-11-1.4-22.8-2.1-35.1-2.1c-14.7,0-28.3,1.1-40.2,3.2
	c-12.4,2.2-23.1,5.9-31.8,11.1c-9,5.3-16,12.4-20.7,21c-4.6,8.4-7,18.9-7,31.2v5.9c0,14.8,3.8,26.7,11.3,35.4
	c7.2,8.3,16.3,15.1,27,20c10.2,4.7,21.4,8.5,33.3,11.2c11,2.6,21.4,5.6,30.9,9c12,4.4,16.4,8.5,18,11.2c2.6,4.3,3.9,9.5,3.9,15.3
	c0,7-1.7,12.6-5.1,16.9c-2.8,3.5-9.9,5.3-20.7,5.3c-6.2,0-11.1-0.7-14.5-2.1c-3.3-1.3-5.7-3-7.3-5.1c-1.8-2.2-3-4.8-3.7-7.8
	c-0.8-3.4-1.1-7.1-1.1-10.8c0-1.3,0.1-3,0.4-4.9c0.2-1.8,0.4-2.5,0.5-2.7c0.8-1.8,0.5-3.9-0.7-5.5c-1.3-1.7-3.5-2.7-5.9-2.7h-59.8
	c-3.2,0-6,1.9-6.8,4.6c-0.2,0.8-0.6,2.4-1,6.2c-0.3,2.8-0.5,6.7-0.5,12.1c0,12.5,2.5,23,7.3,31.3c4.9,8.5,12.2,15.2,21.6,20.1
	c9,4.7,19.9,7.9,32.5,9.6c12,1.6,25.6,2.4,40.5,2.4c34.9,0,59.7-5.7,75.9-17.5c16.3-11.9,24.6-30.1,24.6-54.2
	C1838.1,2709.5,1836.2,2699.1,1832.5,2689.9z"/>
<path class="st4" d="M2178.6,2690c-4-9.9-12.5-18.4-25.4-25.5c-7.4-3.9-15.1-7.1-23-9.5c-7.6-2.3-15.1-4.4-22.5-6.1
	c-7.3-1.8-14.1-3.4-20.6-5c-5.8-1.4-10.9-3.3-15.2-5.6c-4-2.1-7-4.8-9.2-8.1c-2.1-3.1-3.2-7.4-3.2-12.8c0-3.3,0.4-6.3,1.1-9.1
	c0.6-2.3,1.7-4.2,3.4-5.9c1.6-1.7,4-3.1,7.1-4.1c3.3-1.2,8-1.8,13.7-1.8c4.9,0,8.9,0.5,11.8,1.6c2.7,1,4.8,2.3,6.3,3.8
	c1.6,1.6,2.6,3.5,3.2,5.6c0.7,2.6,1.1,5.3,1.1,8.1c0,3.9-0.1,5.8-0.2,6.7c-0.1,1.4-0.3,2.3-0.5,2.7c-0.5,1.8,0,3.7,1.3,5.2
	c1.3,1.5,3.4,2.3,5.5,2.3h57.5c2.9,0,5.4-1.5,6.5-3.8c0.5-1.1,0.9-2.5,1.3-6.4c0.3-2.8,0.5-6.7,0.5-11.7c0-12.2-2.7-22.3-8.1-30.1
	c-5.4-7.7-12.7-13.9-21.7-18.3c-8.7-4.3-18.9-7.2-30.4-8.6c-11-1.4-22.7-2.1-35-2.1c-14.7,0-28.2,1.1-40,3.2
	c-12.3,2.2-23,5.9-31.7,11c-9,5.3-15.9,12.3-20.6,20.9c-4.6,8.4-7,18.9-7,31.1v5.9c0,14.8,3.8,26.7,11.3,35.3
	c7.2,8.3,16.2,15,26.9,19.9c10.2,4.7,21.4,8.5,33.2,11.2c11,2.6,21.4,5.6,30.8,9c11.9,4.4,16.3,8.5,17.9,11.1
	c2.6,4.3,3.8,9.4,3.8,15.3c0,6.9-1.7,12.6-5.1,16.8c-2.8,3.5-9.9,5.3-20.7,5.3c-6.2,0-11.1-0.7-14.4-2.1c-3.2-1.3-5.6-3-7.3-5
	c-1.8-2.2-3-4.8-3.7-7.8c-0.8-3.4-1.1-7-1.1-10.8c0-1.3,0.1-3,0.4-4.9c0.2-1.8,0.4-2.5,0.5-2.7c0.8-1.8,0.5-3.8-0.7-5.5
	c-1.3-1.7-3.5-2.7-5.8-2.7h-59.6c-3.2,0-6,1.9-6.8,4.6c-0.2,0.8-0.6,2.4-1,6.2c-0.3,2.7-0.5,6.7-0.5,12c0,12.5,2.4,22.9,7.3,31.2
	c4.9,8.4,12.2,15.2,21.5,20.1c9,4.7,19.9,7.9,32.4,9.6c11.9,1.6,25.5,2.4,40.3,2.4c34.8,0,59.5-5.7,75.7-17.4
	c16.3-11.8,24.5-30,24.5-54.1C2184.2,2709.6,2182.3,2699.2,2178.6,2690z"/>
</svg>
